<svg width="17" height="17" viewBox="0 0 17 17" fill="none" xmlns="http://www.w3.org/2000/svg">
<path d="M8.5 0.500977C4.084 0.500977 0.5 4.08498 0.5 8.50098C0.5 12.917 4.084 16.501 8.5 16.501C12.916 16.501 16.5 12.917 16.5 8.50098C16.5 4.08498 12.916 0.500977 8.5 0.500977ZM8.5 13.301C7.91333 13.301 7.43333 12.821 7.43333 12.2343C7.43333 11.6476 7.91333 11.1676 8.5 11.1676C9.08667 11.1676 9.56667 11.6476 9.56667 12.2343C9.56667 12.821 9.08667 13.301 8.5 13.301ZM9.72133 5.02898L9.364 9.30631C9.32667 9.75431 8.95333 10.101 8.5 10.101C8.04667 10.101 7.67333 9.75431 7.636 9.30631L7.27867 5.02898C7.22 4.31431 7.78 3.70098 8.5 3.70098C8.66109 3.70098 8.8206 3.73271 8.96943 3.79435C9.11825 3.856 9.25348 3.94635 9.36738 4.06026C9.48129 4.17417 9.57165 4.30939 9.63329 4.45822C9.69494 4.60704 9.72667 4.76656 9.72667 4.92764C9.72667 4.95964 9.72667 4.99698 9.72133 5.02898Z" fill="#FF6174"/>
</svg>
