<svg width="17" height="21" viewBox="0 0 17 21" fill="none" xmlns="http://www.w3.org/2000/svg">
<path d="M6.07143 1.75V3H10.9286V1.75C10.9286 1.05977 11.4712 0.5 12.1429 0.5C12.8145 0.5 13.3571 1.05977 13.3571 1.75V3H15.1786C16.1842 3 17 3.83945 17 4.875V6.75H0V4.875C0 3.83945 0.815469 3 1.82143 3H3.64286V1.75C3.64286 1.05977 4.18549 0.5 4.85714 0.5C5.52879 0.5 6.07143 1.05977 6.07143 1.75ZM0 8H17V18.625C17 19.6602 16.1842 20.5 15.1786 20.5H1.82143C0.815469 20.5 0 19.6602 0 18.625V8ZM2.42857 12.375C2.42857 12.7188 2.70027 13 3.03571 13H4.25C4.58393 13 4.85714 12.7188 4.85714 12.375V11.125C4.85714 10.7812 4.58393 10.5 4.25 10.5H3.03571C2.70027 10.5 2.42857 10.7812 2.42857 11.125V12.375ZM7.28571 12.375C7.28571 12.7188 7.55893 13 7.89286 13H9.10714C9.44107 13 9.71429 12.7188 9.71429 12.375V11.125C9.71429 10.7812 9.44107 10.5 9.10714 10.5H7.89286C7.55893 10.5 7.28571 10.7812 7.28571 11.125V12.375ZM12.75 10.5C12.4161 10.5 12.1429 10.7812 12.1429 11.125V12.375C12.1429 12.7188 12.4161 13 12.75 13H13.9643C14.2982 13 14.5714 12.7188 14.5714 12.375V11.125C14.5714 10.7812 14.2982 10.5 13.9643 10.5H12.75ZM2.42857 17.375C2.42857 17.7188 2.70027 18 3.03571 18H4.25C4.58393 18 4.85714 17.7188 4.85714 17.375V16.125C4.85714 15.7812 4.58393 15.5 4.25 15.5H3.03571C2.70027 15.5 2.42857 15.7812 2.42857 16.125V17.375ZM7.89286 15.5C7.55893 15.5 7.28571 15.7812 7.28571 16.125V17.375C7.28571 17.7188 7.55893 18 7.89286 18H9.10714C9.44107 18 9.71429 17.7188 9.71429 17.375V16.125C9.71429 15.7812 9.44107 15.5 9.10714 15.5H7.89286ZM12.1429 17.375C12.1429 17.7188 12.4161 18 12.75 18H13.9643C14.2982 18 14.5714 17.7188 14.5714 17.375V16.125C14.5714 15.7812 14.2982 15.5 13.9643 15.5H12.75C12.4161 15.5 12.1429 15.7812 12.1429 16.125V17.375Z" fill="#646464"/>
</svg>
