<svg width="16" height="18" viewBox="0 0 16 18" fill="none" xmlns="http://www.w3.org/2000/svg">
<path d="M5.02679 1.08736C5.20759 0.727375 5.57924 0.5 5.98438 0.5H10.0156C10.4208 0.5 10.7924 0.727375 10.9732 1.08736L11.2143 1.5625H14.4286C15.0212 1.5625 15.5 2.0383 15.5 2.625C15.5 3.2117 15.0212 3.6875 14.4286 3.6875H1.57143C0.979799 3.6875 0.5 3.2117 0.5 2.625C0.5 2.0383 0.979799 1.5625 1.57143 1.5625H4.78571L5.02679 1.08736ZM1.54129 4.75H14.4286V15.375C14.4286 16.5471 13.4676 17.5 12.2857 17.5H3.68415C2.53069 17.5 1.54129 16.5471 1.54129 15.375V4.75ZM4.21987 7.40625V14.8438C4.21987 15.1359 4.49107 15.375 4.75558 15.375C5.08036 15.375 5.29129 15.1359 5.29129 14.8438V7.40625C5.29129 7.11406 5.08036 6.875 4.75558 6.875C4.49107 6.875 4.21987 7.11406 4.21987 7.40625ZM7.43415 7.40625V14.8438C7.43415 15.1359 7.70536 15.375 7.96987 15.375C8.29464 15.375 8.53571 15.1359 8.53571 14.8438V7.40625C8.53571 7.11406 8.29464 6.875 7.96987 6.875C7.70536 6.875 7.43415 7.11406 7.43415 7.40625ZM10.6786 7.40625V14.8438C10.6786 15.1359 10.9196 15.375 11.2143 15.375C11.5089 15.375 11.75 15.1359 11.75 14.8438V7.40625C11.75 7.11406 11.5089 6.875 11.2143 6.875C10.9196 6.875 10.6786 7.11406 10.6786 7.40625Z" fill="#646464"/>
</svg>
