<svg width="16" height="13" viewBox="0 0 16 13" fill="none" xmlns="http://www.w3.org/2000/svg">
<path d="M7.76808 3.8445C7.84585 3.83617 7.92362 3.83339 8.00139 3.83339C9.47348 3.83339 10.6678 5.00283 10.6678 6.50005C10.6678 7.97228 9.47348 9.16672 8.00139 9.16672C6.5043 9.16672 5.33495 7.97228 5.33495 6.50005C5.33495 6.42228 5.33773 6.3445 5.34606 6.26672C5.60437 6.39172 5.90435 6.50005 6.22377 6.50005C7.20424 6.50005 8.00139 5.70283 8.00139 4.72228C8.00139 4.40283 7.89307 4.10283 7.76808 3.8445ZM13.3509 2.51672C14.6508 3.72228 15.5202 5.14172 15.9313 6.15839C16.0229 6.37783 16.0229 6.62228 15.9313 6.84172C15.5202 7.83339 14.6508 9.25283 13.3509 10.4834C12.0427 11.7001 10.2456 12.7223 8.00139 12.7223C5.75714 12.7223 3.96007 11.7001 2.65185 10.4834C1.35197 9.25283 0.482597 7.83339 0.068744 6.84172C-0.0229147 6.62228 -0.0229147 6.37783 0.068744 6.15839C0.482597 5.14172 1.35197 3.72228 2.65185 2.51672C3.96007 1.30005 5.75714 0.277832 8.00139 0.277832C10.2456 0.277832 12.0427 1.30005 13.3509 2.51672ZM8.00139 2.50005C5.79325 2.50005 4.00174 4.29172 4.00174 6.50005C4.00174 8.70839 5.79325 10.5001 8.00139 10.5001C10.2095 10.5001 12.001 8.70839 12.001 6.50005C12.001 4.29172 10.2095 2.50005 8.00139 2.50005Z" fill="#646464"/>
</svg>
