<svg width="16" height="14" viewBox="0 0 16 14" fill="none" xmlns="http://www.w3.org/2000/svg">
<path d="M0 1.75C0 0.784766 0.797153 0 1.77762 0H6.22168V3.5C6.22168 3.98398 6.61887 4.375 7.11049 4.375H10.6657V7.875H5.99948C5.63007 7.875 5.33287 8.16758 5.33287 8.53125C5.33287 8.89492 5.63007 9.1875 5.99948 9.1875H10.6657V12.25C10.6657 13.2152 9.86859 14 8.88812 14H1.77762C0.797153 14 0 13.2152 0 12.25V1.75ZM10.6657 9.1875V7.875H13.7238L12.6406 6.80859C12.3795 6.55156 12.3795 6.13594 12.6406 5.88164C12.9017 5.62734 13.3238 5.62461 13.5822 5.88164L15.8042 8.06914C16.0653 8.32617 16.0653 8.7418 15.8042 8.99609L13.5822 11.1836C13.3211 11.4406 12.8989 11.4406 12.6406 11.1836C12.3823 10.9266 12.3795 10.5109 12.6406 10.2566L13.7238 9.19023H10.6657V9.1875ZM10.6657 3.5H7.11049V0L10.6657 3.5Z" fill="#646464"/>
</svg>
