<svg width="8" height="14" viewBox="0 0 8 14" fill="none" xmlns="http://www.w3.org/2000/svg">
<path d="M3.66667 13.6667C2.64444 13.6667 1.77778 13.3111 1.06667 12.6C0.355555 11.8889 0 11.0222 0 10V3.00001C0 2.26668 0.261111 1.6389 0.783333 1.11668C1.30556 0.594455 1.93333 0.333344 2.66667 0.333344C3.4 0.333344 4.02778 0.594455 4.55 1.11668C5.07222 1.6389 5.33333 2.26668 5.33333 3.00001V9.33334C5.33333 9.80001 5.17222 10.1945 4.85 10.5167C4.52778 10.8389 4.13333 11 3.66667 11C3.2 11 2.80556 10.8389 2.48333 10.5167C2.16111 10.1945 2 9.80001 2 9.33334V3.00001H3V9.33334C3 9.52223 3.064 9.68045 3.192 9.80801C3.31956 9.93601 3.47778 10 3.66667 10C3.85556 10 4.014 9.93601 4.142 9.80801C4.26956 9.68045 4.33333 9.52223 4.33333 9.33334V3.00001C4.33333 2.53334 4.17222 2.1389 3.85 1.81668C3.52778 1.49445 3.13333 1.33334 2.66667 1.33334C2.2 1.33334 1.80556 1.49445 1.48333 1.81668C1.16111 2.1389 1 2.53334 1 3.00001V10C1 10.7333 1.26111 11.3611 1.78333 11.8833C2.30556 12.4056 2.93333 12.6667 3.66667 12.6667C4.4 12.6667 5.02778 12.4056 5.55 11.8833C6.07222 11.3611 6.33333 10.7333 6.33333 10V3.00001H7.33333V10C7.33333 11.0222 6.97778 11.8889 6.26667 12.6C5.55556 13.3111 4.68889 13.6667 3.66667 13.6667Z" fill="#1762F8"/>
</svg>
