<svg width="20" height="20" viewBox="0 0 20 20" fill="none" xmlns="http://www.w3.org/2000/svg">
<path fill-rule="evenodd" clip-rule="evenodd" d="M11.7333 10.8333C11.7333 10.4653 12.0312 10.1666 12.3999 10.1666C12.7686 10.1666 13.0665 10.4653 13.0665 10.8333V13.5C13.0665 14.6027 12.1692 15.5 11.0665 15.5H9.06653V16.1666C9.06653 16.902 8.46863 17.5 7.73328 17.5C7.59119 17.5 7.45593 17.48 7.31995 17.438L3.30786 16.1006C2.76257 15.9113 2.3999 15.4026 2.3999 14.8333V2.83325C2.3999 2.0979 2.99792 1.5 3.73328 1.5C3.75164 1.5 3.76939 1.5038 3.78712 1.5076C3.80086 1.51054 3.8146 1.51348 3.82861 1.51465C3.83894 1.51327 3.84867 1.51048 3.85835 1.50769C3.87179 1.50384 3.88514 1.5 3.8999 1.5H11.0665C12.1692 1.5 13.0665 2.39734 13.0665 3.5V5.5C13.0665 5.86792 12.7686 6.16663 12.3999 6.16663C12.0312 6.16663 11.7333 5.86792 11.7333 5.5V3.5C11.7333 3.13257 11.4346 2.83325 11.0665 2.83325H7.96118L8.15857 2.89929C8.70386 3.08862 9.06653 3.59729 9.06653 4.16663V14.1666H11.0665C11.4346 14.1666 11.7333 13.8673 11.7333 13.5V10.8333ZM15.5378 5.02869L18.2046 7.69531C18.4652 7.95593 18.4652 8.37732 18.2046 8.63794L15.5378 11.3047C15.3473 11.4952 15.0605 11.5526 14.8113 11.4493C14.5626 11.3459 14.3999 11.1027 14.3999 10.8333V8.83325H11.7333C11.3652 8.83325 11.0665 8.53467 11.0665 8.16663C11.0665 7.79858 11.3652 7.5 11.7333 7.5H14.3999V5.5C14.3999 5.23059 14.5626 4.98731 14.8113 4.88391C15.0605 4.78064 15.3473 4.83801 15.5378 5.02869Z" fill="#0B205C"/>
</svg>
