<svg width="16" height="15" viewBox="0 0 16 15" fill="none" xmlns="http://www.w3.org/2000/svg">
<path d="M6.925 1.33094L5.835 1.73094C5.745 1.77094 5.685 1.85094 5.685 1.94094C5.685 2.03094 5.745 2.12094 5.825 2.15094L6.915 2.56094L7.325 3.65094C7.355 3.74094 7.445 3.79094 7.535 3.79094C7.625 3.79094 7.715 3.73094 7.745 3.65094L8.155 2.56094L9.245 2.15094C9.335 2.12094 9.385 2.03094 9.385 1.94094C9.385 1.85094 9.325 1.76094 9.245 1.73094L8.155 1.33094L7.745 0.230938C7.715 0.150938 7.635 0.0909375 7.535 0.0909375C7.435 0.0909375 7.365 0.150938 7.325 0.230938L6.925 1.33094ZM1.465 11.5409C0.925 12.0809 0.925 12.9609 1.465 13.5109L2.465 14.5109C3.005 15.0509 3.885 15.0509 4.435 14.5109L15.465 3.46094C16.005 2.92094 16.005 2.04094 15.465 1.49094L14.465 0.490938C13.925 -0.0490625 13.045 -0.0490625 12.495 0.490938L1.465 11.5409ZM14.155 2.48094L11.115 5.52094L10.445 4.85094L13.485 1.81094L14.155 2.48094ZM0.345 3.48094C0.215 3.53094 0.125 3.66094 0.125 3.80094C0.125 3.94094 0.215 4.06094 0.345 4.11094L1.985 4.72094L2.595 6.36094C2.645 6.49094 2.765 6.57094 2.905 6.57094C3.045 6.57094 3.175 6.49094 3.215 6.36094L3.825 4.72094L5.465 4.11094C5.595 4.06094 5.685 3.94094 5.685 3.80094C5.685 3.66094 5.595 3.53094 5.465 3.48094L3.835 2.87094L3.215 1.23094C3.175 1.10094 3.045 1.02094 2.905 1.02094C2.765 1.02094 2.645 1.10094 2.595 1.23094L1.985 2.87094L0.345 3.48094ZM10.535 10.8909C10.405 10.9409 10.315 11.0609 10.315 11.2009C10.315 11.3409 10.405 11.4609 10.535 11.5109L12.175 12.1209L12.785 13.7609C12.835 13.8909 12.955 13.9809 13.095 13.9809C13.235 13.9809 13.355 13.8909 13.405 13.7609L14.015 12.1209L15.655 11.5109C15.785 11.4609 15.875 11.3409 15.875 11.2009C15.875 11.0609 15.785 10.9409 15.655 10.8909L14.015 10.2809L13.405 8.64094C13.355 8.51094 13.235 8.42094 13.095 8.42094C12.955 8.42094 12.835 8.51094 12.785 8.64094L12.175 10.2809L10.535 10.8909Z" fill="white"/>
</svg>
