<svg width="14" height="17" viewBox="0 0 14 17" fill="none" xmlns="http://www.w3.org/2000/svg">
<path d="M7 13.4045C7.9 12.5045 8.8 11.7045 9.7 10.8045C9.9 10.6045 10.1 10.4045 10.4 10.4045C10.5 10.4045 10.6 10.4045 10.7 10.5045C12.4 11.3045 13.5 12.5045 13.8 14.4045C13.9 14.7045 13.9 15.0045 13.9 15.3045C13.9 16.0045 13.5 16.4045 12.8 16.5045C12.7 16.5045 12.7 16.5045 12.6 16.5045C8.8 16.5045 5 16.5045 1.2 16.5045C1 16.5045 0.9 16.5045 0.7 16.4045C0.3 16.3045 0 15.9045 0 15.3045C0 14.6045 0.1 13.8045 0.5 13.1045C1 12.1045 1.6 11.4045 2.6 10.8045C2.8 10.8045 3 10.6045 3.2 10.5045C3.5 10.3045 3.9 10.4045 4.1 10.6045C4.3 10.7045 4.4 10.9045 4.6 11.1045C5.3 11.8045 6.1 12.6045 6.8 13.3045C6.9 13.4045 6.9 13.5045 7 13.4045C7 13.5045 7 13.5045 7 13.4045ZM10.5 11.4045C10.4 11.5045 10.4 11.5045 10.4 11.6045C9.6 12.4045 8.8 13.3045 7.9 14.1045C7.4 14.7045 6.8 14.6045 6.2 14.1045C5.4 13.3045 4.5 12.4045 3.7 11.6045C3.6 11.5045 3.6 11.4045 3.4 11.5045C1.9 12.3045 1.1 13.6045 1 15.3045C1 15.5045 1.1 15.5045 1.2 15.5045C5.1 15.5045 8.9 15.5045 12.8 15.5045C13 15.5045 13 15.5045 13 15.3045C12.9 13.5045 12 12.3045 10.5 11.4045Z" fill="#646464"/>
<path d="M11.0001 4.40452C11.0001 5.10452 11.0001 5.80452 11.0001 6.40452C10.9001 7.60452 10.3001 8.50452 9.4001 9.20452C8.0001 10.2045 6.1001 10.2045 4.7001 9.20452C3.7001 8.50452 3.1001 7.50452 3.1001 6.30452C3.1001 5.10452 3.1001 3.90452 3.1001 2.70452C3.1001 2.30452 3.3001 1.90452 3.7001 1.70452C4.6001 1.30452 5.6001 1.00452 6.5001 0.604516C6.9001 0.404516 7.4001 0.504516 7.8001 0.704516C8.6001 1.00452 9.5001 1.30452 10.3001 1.70452C10.8001 1.90452 11.0001 2.20452 11.0001 2.70452C11.0001 3.20452 11.0001 3.80452 11.0001 4.40452ZM4.0001 2.60452C4.0001 3.40452 4.0001 4.20452 4.0001 5.00452C6.0001 5.00452 8.0001 5.00452 10.0001 5.00452C10.0001 4.20452 10.0001 3.50452 10.0001 2.70452C10.0001 2.60452 9.9001 2.50452 9.9001 2.50452C9.1001 2.20452 8.3001 1.90452 7.5001 1.60452C7.2001 1.50452 6.9001 1.50452 6.6001 1.60452C5.8001 1.90452 4.9001 2.20452 4.0001 2.60452ZM4.1001 6.00452C4.1001 7.60452 5.4001 9.00452 7.1001 9.00452C8.9001 8.90452 10.0001 7.50452 10.0001 6.00452C8.0001 6.00452 6.0001 6.00452 4.1001 6.00452Z" fill="#646464"/>
<path d="M6.50005 2.7045C6.50005 2.2045 6.70005 2.0045 7.00005 2.0045C7.30005 2.0045 7.40005 2.2045 7.50005 2.7045C7.80005 2.7045 8.20005 2.7045 8.20005 3.2045C8.20005 3.5045 8.10005 3.6045 7.50005 3.7045C7.40005 4.3045 7.30005 4.5045 7.00005 4.5045C6.60005 4.5045 6.50005 4.4045 6.50005 3.8045C5.90005 3.7045 5.80005 3.6045 5.80005 3.2045C5.80005 2.9045 6.00005 2.8045 6.50005 2.7045Z" fill="#646464"/>
</svg>
