<svg width="16" height="17" viewBox="0 0 16 17" fill="none" xmlns="http://www.w3.org/2000/svg">
<path d="M12.887 7.3745L6.02078 14.6674L5.02265 13.6067L5.1257 13.4972H3.76836C3.50926 13.4972 3.29726 13.272 3.29726 12.9967V11.5544L3.19451 11.6639C3.05524 11.814 2.95307 11.9955 2.89742 12.1957L2.22081 14.6423L4.52211 13.9227C4.68405 13.8633 4.88132 13.7538 5.02265 13.6067L6.02078 14.6674C5.71457 14.9927 5.33475 15.2336 4.9196 15.3619L1.37667 16.4694C1.12876 16.5477 0.860527 16.4757 0.677684 16.2536C0.494834 16.0878 0.426472 15.803 0.499433 15.5371L1.54155 11.7734C1.66404 11.3322 1.88869 10.9286 2.1952 10.6033L9.05934 3.30853L12.887 7.3745ZM14.9775 2.32019C15.7135 3.10204 15.7135 4.37101 14.9775 5.15317L13.5524 6.66743L9.72476 2.60083L11.1498 1.08657C11.8859 0.304476 13.0813 0.304476 13.8174 1.08657L14.9775 2.32019Z" fill="white"/>
</svg>
