<svg width="16" height="17" viewBox="0 0 16 17" fill="none" xmlns="http://www.w3.org/2000/svg">
<path d="M14.9333 0.5C14.3443 0.5 13.8667 0.977 13.8667 1.56667V4.03633C12.5367 2.184 10.38 1.03333 8 1.03333C4.85 1.03333 2.08633 3.04467 1.11933 6.04C0.938067 6.60033 1.2459 7.20267 1.80633 7.38267C2.36933 7.566 2.969 7.2556 3.14967 6.69633C3.83 4.58333 5.78 3.16667 8 3.16667C9.68333 3.16667 11.2087 3.985 12.1467 5.3H10.6667C10.0777 5.3 9.6 5.777 9.6 6.36667C9.6 6.95633 10.0777 7.43333 10.6667 7.43333H14.9333C15.5223 7.43333 16 6.95633 16 6.36667V1.56667C16 0.977 15.5233 0.5 14.9333 0.5ZM14.1933 9.62C13.6293 9.43873 13.0307 9.74707 12.85 10.3063C12.17 12.4167 10.22 13.8333 8 13.8333C6.31667 13.8333 4.79167 13.015 3.85333 11.7H5.33333C5.92233 11.7 6.4 11.223 6.4 10.6333C6.4 10.0437 5.92233 9.56667 5.33333 9.56667H1.06667C0.477667 9.56667 0 10.0437 0 10.6333V15.4333C0 16.023 0.477667 16.5 1.06667 16.5C1.65567 16.5 2.13333 16.023 2.13333 15.4333V12.9637C3.46333 14.8167 5.62 15.9667 7.97 15.9667C11.1183 15.9667 13.8833 13.9553 14.85 10.96C15.0633 10.4 14.7533 9.77 14.1933 9.62Z" fill="white"/>
</svg>
