<svg width="17" height="17" viewBox="0 0 17 17" fill="none" xmlns="http://www.w3.org/2000/svg">
<path d="M9.20002 16.5C9.00002 16.5 8.80002 16.5 8.60002 16.5C8.40002 16.3998 8.20002 16.3998 8.00002 16.1995C7.50002 15.7989 7.00002 15.7989 6.50002 15.7989C6.40002 15.7989 6.20002 15.7989 6.10002 15.7989C4.60002 15.7989 3.10002 15.7989 1.60002 15.7989C1.20002 15.7989 1.00002 15.5986 1.00002 15.198C1.00002 14.9977 1.00002 14.7973 0.900024 14.597C0.900024 12.4937 0.900024 10.2903 0.900024 8.08685C0.900024 7.88654 1.00002 7.68623 0.900024 7.48592C0.900024 6.98513 1.10002 6.68466 1.50002 6.48435C1.60002 6.38419 1.70002 6.38419 1.80002 6.28404C4.10002 4.982 6.40002 5.08216 8.70002 6.28404C8.80002 6.38419 8.90002 6.48435 9.10002 6.38419C10.6 5.38263 12.2 5.28247 13.9 5.48279C14.8 5.58294 15.7 5.98357 16.5 6.58451C16.7 6.78482 16.9 6.98513 16.9 7.18545C16.9 9.78951 16.9 12.4937 16.9 15.0978C16.9 15.4984 16.6 15.7989 16.2 15.7989C14.3 15.7989 12.5 15.7989 10.6 15.7989C10.5 15.7989 10.3 15.7989 10.2 15.8991C9.90002 16.0994 9.50002 16.2997 9.20002 16.5ZM8.30002 13.9961C8.30002 13.8959 8.30002 13.7958 8.30002 13.7958C8.30002 11.7926 8.30002 9.78951 8.30002 7.68623C8.30002 7.58607 8.20002 7.38576 8.10002 7.38576C6.20002 6.38419 4.30002 6.28404 2.40002 7.38576C2.20002 7.48592 2.10002 7.58607 2.10002 7.78639C2.10002 9.68936 2.10002 11.6925 2.10002 13.5955C2.10002 13.6956 2.10002 13.7958 2.10002 13.9961C4.20002 13.1948 6.20002 13.1948 8.30002 13.9961ZM15.6 13.9961C15.6 13.8959 15.6 13.8959 15.6 13.7958C15.6 11.7926 15.6 9.68936 15.6 7.68623C15.6 7.58607 15.5 7.38576 15.4 7.38576C13.5 6.38419 11.6 6.38419 9.70002 7.38576C9.60002 7.48592 9.50002 7.58607 9.50002 7.78639C9.50002 9.68936 9.50002 11.6925 9.50002 13.5955C9.50002 13.6956 9.50002 13.7958 9.50002 13.9961C11.6 13.1948 13.6 13.1948 15.6 13.9961Z" fill="#646464" fill-opacity="0.5"/>
<path d="M1.00001 4.78169C0.900012 4.48122 1.10001 4.28091 1.40001 4.18075C3.10001 3.27934 4.90001 2.37793 6.60001 1.57668C7.20001 1.27621 7.90001 0.975743 8.50001 0.575117C8.80001 0.474961 9.00001 0.474961 9.20001 0.575117C11.6 1.777 14.1 2.97887 16.5 4.18075C16.9 4.38106 17 4.78169 16.7 5.18231C16.5 5.38263 16.3 5.38263 16.1 5.28247C15.5 4.982 14.8 4.68153 14.2 4.38106C12.5 3.57981 10.9 2.6784 9.20001 1.87715C9.00001 1.777 8.90001 1.777 8.70001 1.87715C6.50001 2.97887 4.40001 4.08059 2.30001 5.08216C2.10001 5.18231 1.90001 5.28247 1.70001 5.28247C1.30001 5.48278 1.00001 5.18232 1.00001 4.78169Z" fill="#646464" fill-opacity="0.5"/>
</svg>
