<svg width="16" height="17" viewBox="0 0 16 17" fill="none" xmlns="http://www.w3.org/2000/svg">
<path d="M15.6344 14.3641L11.8938 10.6239C12.7444 9.36123 13.1641 7.78359 12.9394 6.10252C12.5563 3.24313 10.2125 0.916195 7.34999 0.553827C3.09404 0.0153535 -0.484725 3.59372 0.0538391 7.8492C0.41634 10.7126 2.74385 13.058 5.60386 13.4392C7.28512 13.6639 8.86325 13.2444 10.1258 12.3937L13.8664 16.1339C14.3545 16.622 15.1461 16.622 15.6342 16.1339C16.1219 15.6452 16.1219 14.8516 15.6344 14.3641ZM2.47185 6.9993C2.47185 4.79391 4.26623 2.99972 6.47186 2.99972C8.6775 2.99972 10.4719 4.79391 10.4719 6.9993C10.4719 9.20469 8.6775 10.9989 6.47186 10.9989C4.26623 10.9989 2.47185 9.20531 2.47185 6.9993Z" fill="white"/>
</svg>
