<svg width="16" height="17" viewBox="0 0 16 17" fill="none" xmlns="http://www.w3.org/2000/svg">
<path d="M15.5581 5.70727C15.6583 5.9792 15.5738 6.28238 15.3577 6.47617L14.0018 7.70766C14.0363 7.96708 14.0551 8.23276 14.0551 8.50156C14.0551 8.77037 14.0363 9.03604 14.0018 9.29547L15.3577 10.527C15.5738 10.7207 15.6583 11.0239 15.5581 11.2959C15.4203 11.6678 15.2544 12.0241 15.0634 12.3679L14.9162 12.6211C14.7095 12.9649 14.4778 13.29 14.2242 13.5963C14.0394 13.8214 13.7325 13.8964 13.457 13.8088L11.7128 13.2556C11.2932 13.5776 10.8298 13.8464 10.335 14.0495L9.94361 15.8342C9.88098 16.1187 9.66179 16.3437 9.3737 16.3906C8.94158 16.4625 8.49693 16.5 8.04288 16.5C7.58884 16.5 7.14418 16.4625 6.71206 16.3906C6.42397 16.3437 6.20478 16.1187 6.14215 15.8342L5.75074 14.0495C5.25598 13.8464 4.79254 13.5776 4.37294 13.2556L2.63191 13.812C2.35636 13.8995 2.04948 13.8214 1.86473 13.5994C1.6111 13.2931 1.37938 12.9681 1.17271 12.6242L1.02553 12.3711C0.834522 12.0273 0.668561 11.6709 0.530781 11.299C0.430578 11.0271 0.515125 10.7239 0.731188 10.5301L2.08706 9.29859C2.05262 9.03604 2.03383 8.77037 2.03383 8.50156C2.03383 8.23276 2.05262 7.96708 2.08706 7.70766L0.731188 6.47617C0.515125 6.28238 0.430578 5.9792 0.530781 5.70727C0.668561 5.33532 0.834522 4.979 1.02553 4.63518L1.17271 4.38201C1.37938 4.03819 1.6111 3.71313 1.86473 3.40682C2.04948 3.18177 2.35636 3.10676 2.63191 3.19428L4.37607 3.74751C4.79568 3.42557 5.25911 3.15677 5.75387 2.9536L6.14529 1.16888C6.20791 0.88445 6.42711 0.659406 6.71519 0.612522C7.14732 0.537507 7.59197 0.5 8.04601 0.5C8.50006 0.5 8.94471 0.537507 9.37684 0.609396C9.66492 0.656281 9.88411 0.881324 9.94674 1.16576L10.3382 2.95048C10.8329 3.15364 11.2964 3.42245 11.716 3.74438L13.4601 3.19115C13.7357 3.10363 14.0425 3.18177 14.2273 3.40369C14.4809 3.71 14.7126 4.03507 14.9193 4.37888L15.0665 4.63206C15.2575 4.97587 15.4235 5.33219 15.5612 5.70414L15.5581 5.70727ZM8.04601 11.0021C9.43007 11.0021 10.5511 9.88308 10.5511 8.50156C10.5511 7.12004 9.43007 6.00107 8.04601 6.00107C6.66196 6.00107 5.54094 7.12004 5.54094 8.50156C5.54094 9.88308 6.66196 11.0021 8.04601 11.0021Z" fill="#0B205C"/>
</svg>
