<svg width="20" height="20" viewBox="0 0 20 20" fill="none" xmlns="http://www.w3.org/2000/svg">
<g clip-path="url(#clip0_2904_5448)">
<path d="M13.3333 13.3334C13.1867 13.3334 13.04 13.2867 12.9167 13.1867L9.58334 10.52C9.4267 10.3934 9.33335 10.2034 9.33335 10.0001V4.66671C9.33335 4.30004 9.63333 4.00005 10 4.00005C10.3667 4.00005 10.6667 4.30004 10.6667 4.66671V9.68004L13.75 12.1467C14.0366 12.3767 14.0833 12.7967 13.8533 13.0834C13.7911 13.1616 13.712 13.2246 13.6219 13.2679C13.5319 13.3112 13.4332 13.3336 13.3333 13.3334Z" fill="#646464"/>
<path fill-rule="evenodd" clip-rule="evenodd" d="M20 10C20 15.5133 15.5133 20 10 20C4.48668 20 0 15.5133 0 10C0 4.48668 4.48662 0 10 0C15.5134 0 20 4.48668 20 10ZM18.6667 10C18.6667 5.21996 14.78 1.33331 10 1.33331C5.22002 1.33331 1.33331 5.21996 1.33331 10C1.33331 14.78 5.21996 18.6667 10 18.6667C14.78 18.6667 18.6667 14.78 18.6667 10Z" fill="#646464"/>
</g>
<defs>
<clipPath id="clip0_2904_5448">
<rect width="20" height="20" fill="white"/>
</clipPath>
</defs>
</svg>
